<?xml version="1.0" encoding="utf-8"?>
<!-- Generator: Adobe Illustrator 26.3.1, SVG Export Plug-In . SVG Version: 6.00 Build 0)  -->
<svg version="1.1" id="layer" xmlns="http://www.w3.org/2000/svg" xmlns:xlink="http://www.w3.org/1999/xlink" x="0px" y="0px"
	 viewBox="0 0 600.1 127" style="enable-background:new 0 0 600.1 127;" xml:space="preserve">
<style type="text/css">
	.st0{fill:#004482;}
</style>
<path class="st0" d="M8,81.8c0.2,4.2,5.1,4.9,7.7,4.9c3.6,0,7.6-1,7.6-3.6c0-2.2-1.2-2.9-9.1-4C5.6,77.9,1,76.9,1,70.6
	c0-8,9.3-9,14-9c4.3,0,14.7,0.6,15.1,9.6h-7.6c-0.6-4.2-5.4-4.6-7.9-4.6c-4.1,0-6.3,1.7-6.3,3.2c0,2.3,0.7,2.6,7.7,3.6
	c9.2,1.3,15.2,2.2,15.2,8.7c0,7.1-6.8,9.6-15.5,9.6c-6,0-15.4-1.3-15.7-9.8"/>
<path class="st0" d="M60.9,72.4c-0.5-2.9-3.6-5.3-7.8-5.3c-6.8,0-9.7,4.6-9.7,9.4c0,4.9,2.6,9.4,8.9,9.4c5.6,0,7.2-2.2,8.7-6.2h7.6
	C66.9,91.3,55,91.5,53.1,91.5c-12.5,0-17.3-7.3-17.3-15c0-9,6.5-15,17.3-15c4.2,0,13.8,1.4,15.4,10.9"/>
<path class="st0" d="M80.9,76.5c0-4.8,2.6-9.4,9.7-9.4s9.7,4.6,9.7,9.4c0,4.9-2.6,9.4-9.7,9.4C83.6,86,80.9,81.4,80.9,76.5
	 M73.3,76.5c0,7.7,4.8,15,17.3,15s17.3-7.3,17.3-15s-4.8-15-17.3-15S73.3,68.8,73.3,76.5z"/>
<path class="st0" d="M116.2,67.8h-5.8v-5.3h5.8v-8.7h7.3v8.7h7.6v5.3h-7.6v12.8c0,3.2,0.2,5,2.6,5c1.8,0,3.5-0.1,5.2-0.1v5.3
	c-1.9,0.3-3.4,0.4-5.6,0.4c-8.9,0-9.5-3.2-9.5-8.4"/>
<path class="st0" d="M139,67.8h-5.8v-5.3h5.8v-8.7h7.3v8.7h7.6v5.3h-7.6v12.8c0,3.2,0.2,5,2.6,5c1.8,0,3.5-0.1,5.2-0.1v5.3
	c-2,0.3-3.4,0.4-5.6,0.4c-8.9,0-9.5-3.2-9.5-8.4"/>
<path class="st0" d="M159.7,62.5h7.3v28h-7.3 M159.7,52.2h7.3v5.9h-7.3V52.2z"/>
<path class="st0" d="M181,81.8c0.2,4.2,5.1,4.9,7.7,4.9c3.6,0,7.6-1,7.6-3.6c0-2.2-1.2-2.9-9.1-4c-8.7-1.2-13.2-2.2-13.2-8.5
	c0-8,9.3-9,14-9c4.3,0,14.7,0.6,15.1,9.6h-7.6c-0.6-4.2-5.4-4.6-7.9-4.6c-4.1,0-6.3,1.7-6.3,3.2c0,2.3,0.7,2.6,7.7,3.6
	c9.2,1.3,15.2,2.2,15.2,8.7c0,7.1-6.8,9.6-15.5,9.6c-6,0-15.4-1.3-15.7-9.8"/>
<path class="st0" d="M210,52.2h7.3v14.6h0.1c2.4-3,6.1-5,11-5c6,0,11.9,2.2,11.9,9.7v19H233V73.8c0-3-1-6.4-7-6.4
	c-3.8,0-8.7,2.1-8.7,8.1v15H210"/>
<path class="st0" d="M269.6,80.4c0,6.4-7.1,8.9-12.5,8.9c-3.3,0-8.8-0.6-8.8-6.1c0-4.1,3.2-5.3,7.8-5.6l9.1-0.6
	c2.3-0.2,3.7-0.8,4.3-1.4h0.1 M249.5,71.8c0.7-4.9,3-7.1,10.1-7.1c8,0,10,2.5,10,6.1c0,3.3-1.3,3.6-4.1,3.9l-9.4,0.6
	c-5.5,0.3-10.2,2.2-10.2,7.8c0,8.2,8.8,8.2,11.1,8.2c3.5,0,9.9-0.7,12.9-6.2h0.1c0,3.6,0,5.9,3.3,5.9c1.2,0,2.2-0.2,3-0.4v-2.1
	c-0.8,0.3-1.6,0.4-2.4,0.4c-1.8,0-1.8-1.2-1.8-3.2V70.6c0-6.1-4.5-7.9-12.4-7.9c-8.2,0-11.7,2.4-12.6,9.2L249.5,71.8L249.5,71.8z"/>
<path class="st0" d="M282.7,54.4h2.4v9.1h8v2.1h-8v19.5c0,3.3,1.9,3.9,4.9,3.9c1.1,0,2.3-0.2,3.4-0.3v2.1c-1.3,0.3-2.8,0.3-4.1,0.3
	c-5.6,0-6.6-2.1-6.6-7.3V65.6h-6.1v-2.1h6.1"/>
<path class="st0" d="M298,52.8h2.4v16h0.1c1.7-3.2,5.2-6.2,11.4-6.2c12.4,0,12.4,7.9,12.4,11.2v16.7h-2.4V73.9c0-5.5-2.1-9.2-10-9.2
	c-8,0-11.5,5-11.5,10v15.8H298"/>
<rect x="331.8" y="52.8" class="st0" width="2.4" height="37.7"/>
<path class="st0" d="M342.5,75.4c1.1-6.4,5.4-10.7,12.4-10.7c6.2,0,11.4,3.3,12.4,10.7 M370.1,77.5c-0.1-8.7-5.5-14.9-14.9-14.9
	c-11.5,0-15.1,8.5-15.1,14.1c0,9,5.8,14.6,15,14.6c7.2,0,11.9-3,14.2-9.8h-2.4c-1,2.4-3.1,7.7-11.5,7.7c-8.1,0-12.7-5-12.9-11.7
	L370.1,77.5L370.1,77.5z"/>
<path class="st0" d="M377.9,54.4h2.4v9.1h8v2.1h-8v19.5c0,3.3,1.9,3.9,4.9,3.9c1.1,0,2.3-0.2,3.4-0.3v2.1c-1.3,0.3-2.8,0.3-4.1,0.3
	c-5.6,0-6.6-2.1-6.6-7.3V65.6h-6.1v-2.1h6.1"/>
<path class="st0" d="M393.4,63.5h2.4v27h-2.4 M393.4,52.8h2.4v5.6h-2.4V52.8z"/>
<path class="st0" d="M428.4,72c-0.3-3.4-5-7.2-11.4-7.2c-8.5,0-12.8,6.1-12.8,12.5c0,4.4,3.1,12,12.8,12c5.4,0,10.6-2.6,11.8-8.2
	h2.4c-1.4,7.1-7.4,10.3-14.2,10.3c-8.9,0-15.3-5.7-15.3-14.1c0-9.5,7-14.6,15.3-14.6s13.6,4.7,13.9,9.3"/>
<path class="st0" d="M457.6,71.4c-0.4-4.5-3.2-6.7-10.2-6.7c-6.6,0-8.8,2.6-8.8,5.4c0,3,2.2,4.2,5.4,4.6l8.6,1.2
	c5.1,0.7,8.5,2.5,8.5,7.4c0,7.3-8.3,8.1-12.9,8.1c-7.4,0-12.8-2.5-13.2-9.3h2.4c0.3,2.8,0.9,7.2,11.4,7.2c7.1,0,9.9-2.1,9.9-6
	c0-3.1-2.3-4.5-5.4-4.9l-9.5-1.3c-3.3-0.4-7.6-2-7.6-6.8c0-3.1,2.2-7.7,11.3-7.7c10,0,12.2,4.5,12.6,8.8"/>
<g>
	<path class="st0" d="M567.1,36.6c0,0,19.7,7.1,33-15.7c0,0,0.8,33-38.4,36.1"/>
</g>
<path class="st0" d="M549.4,56.6c-30.5-4.6-51.2,21.4-57,25.6c0,0,15.2-46.3,64.6-47.4"/>
<path class="st0" d="M582,11.9c0,6.6-5.3,11.9-11.9,11.9c-6.6,0-11.9-5.3-11.9-11.9S563.5,0,570.1,0S582,5.4,582,11.9"/>
<path class="st0" d="M556.2,68.9l-10.2,23c30.2-11.5,40.1-29.6,34.9-27.8C564.4,69.9,556.2,68.9,556.2,68.9l-0.4,2.1"/>
<path class="st0" d="M545.4,67.4c0,0-28.4,1.1-49.4,31.9L474.7,127c0,0,45.8-29.7,59.4-35.9"/>
</svg>
